<svg width="700" height="700" viewBox="0 0 700 700" fill="none" xmlns="http://www.w3.org/2000/svg">
<path d="M623.887 407.041L623.831 407.13L624 407.172L623.887 407.041Z" fill="white"/>
<path d="M623.378 406.467L623.887 407.05C624.111 406.667 623.994 406.467 623.378 406.467Z" fill="white"/>
<path d="M82.698 249.606C84.6533 250.777 86.5667 251.939 88.074 252.453L82.698 249.606Z" fill="white"/>
<path d="M82.698 249.606C80.9719 248.5 79.1564 247.54 77.2707 246.736L82.698 249.606Z" fill="white"/>
<path d="M98.8773 234.024C99.176 234.673 102.144 240.725 102.373 241.024L98.8773 234.024Z" fill="white"/>
<path d="M117.306 240.063C117.88 238.789 120.321 234.271 120.484 233.063L117.306 240.063Z" fill="white"/>
<path d="M129.897 252.075L128.749 252.775L129.897 252.075Z" fill="white"/>
<path d="M129.897 252.075L136.057 248.341C135.193 248.733 131.847 250.861 129.897 252.075Z" fill="white"/>
<path d="M642.539 372.591C653.016 372.33 663.707 372.125 671.781 370.725L642.539 372.591Z" fill="white"/>
<path d="M73.7754 545.477C82.81 553.411 95.8394 566.664 107.329 573.701C113.461 577.435 113.498 580.235 116.881 576.338C120.017 572.726 123.415 571.177 120.927 570.024C123.41 570.243 140.672 545.944 140.695 545.823C141.531 541.319 137.919 540.335 133.999 540.223C137.247 538.078 140.364 535.741 143.332 533.223C148.605 537.045 153.389 539.415 155.974 538.356C165.802 534.315 222.987 490.434 258.725 465.556C259.966 474.852 261.249 481.395 262.337 481.395C280.509 481.395 294.425 480.634 309.209 479.962C327.945 504.793 349.193 519.773 431.261 546.947C431.261 546.947 432.035 545.412 433.594 542.444C437.066 544.115 441.705 545.935 445.172 545.799C442.185 546.509 439.395 544.516 438.34 546.042C437.766 546.868 437.757 551.815 437.757 555.455C437.757 557.321 435.843 569.553 434.957 570.565C433.897 571.746 432.264 572.311 428.423 575.092C426.599 576.408 423.15 577.187 422.464 580.473C422.203 581.723 421.064 584.673 421.349 586.115C420.023 588.252 418.353 596.293 425.824 595.971C436.165 595.504 452.573 600.227 460.222 592.163C471.254 580.538 472.631 574.593 480.111 561.442C482.384 557.447 490.378 542.701 482.967 541.114C480.559 540.601 480.429 539.019 477.965 539.887C477.363 538.272 475.165 536.97 470.899 534.343C464.156 530.175 449.433 519.54 450.282 529.676C447.809 528.182 445.252 526.832 442.624 525.63C443.408 524.193 444.232 522.69 445.097 521.122C442.437 517.687 411.031 501.317 388.262 478.618L476.779 477.881C473.774 468.253 437.435 401.856 399.28 342.426H400.213H399.247C392.355 331.693 385.397 321.169 378.569 311.262C412.239 324.562 448.14 335.79 467.133 345.007C468.067 345.473 468.921 342.748 469.616 338.674C484.461 339.379 482.557 357.387 497.961 350.341C498.606 350.637 499.266 350.897 499.94 351.12L500.715 351.367L501.181 351.694C504.705 354.055 519.848 360.463 526.848 362.166C523.959 370.435 520.184 378.387 517.393 389.643L527.403 382.069C527.403 380.833 532.835 364.756 534.767 358.409L535.234 358.582C532.481 366.179 529.727 373.553 527.707 382.069C523.507 387.413 512.372 391.631 519.419 392.845C541.053 396.578 599.466 413.845 612.547 413.845C614.021 413.845 622.501 408.931 623.779 407.106L622.725 406.831C625.655 404.586 630.341 384.431 632.991 373.17L642.493 372.568C639.305 372.647 636.137 372.731 633.066 372.853C633.887 369.376 634.499 366.786 634.793 365.946C635.629 363.347 636.299 360.697 636.799 358.013C641.443 357.835 645.951 357.467 647.901 356.841L637 357.411C640.533 339.458 642.973 308.513 645.456 303.277C646.52 301.028 630.761 300.552 627.447 299.493C622.314 297.859 558.306 287.42 551.931 287.42C547.68 287.915 545.006 290.607 542.159 292.609C538.729 295.031 538.062 303.413 538.267 307.753C538.305 308.712 538.294 309.673 538.235 310.632C524.552 308.065 496.851 305.765 490.985 315.882C490.322 316.348 489.731 316.907 489.23 317.543C488.964 317.879 488.717 318.22 488.483 318.561C483.187 318.225 477.671 318.267 474.53 317.497C474.53 317.497 472.085 317.497 471.819 317.473C472.066 313.838 472.192 311.341 472.192 311.341C457.977 306.675 399.891 282.053 357.28 262.299C357.488 262.287 357.692 262.231 357.877 262.136H356.902C339.351 253.993 324.469 246.694 316.428 241.99C309.853 238.145 303.753 236.357 298.461 236.217C298.489 236.003 298.517 235.793 298.55 235.578C298.55 235.508 298.55 235.438 298.583 235.363C298.611 235.172 298.639 234.981 298.671 234.789C298.671 234.705 298.699 234.621 298.713 234.533C298.741 234.355 298.774 234.178 298.807 234.001C298.807 233.907 298.844 233.814 298.858 233.721C298.891 233.553 298.928 233.385 298.961 233.221C298.993 233.058 299.003 233.021 299.026 232.923C299.049 232.825 299.096 232.605 299.133 232.456C299.171 232.307 299.185 232.251 299.213 232.153C299.241 232.055 299.292 231.849 299.329 231.686C299.367 231.523 299.39 231.481 299.418 231.378C299.446 231.275 299.502 231.089 299.549 230.944L299.647 230.636C299.693 230.496 299.74 230.356 299.791 230.216C299.843 230.076 299.861 230.02 299.899 229.917C299.936 229.815 300.006 229.647 300.062 229.516C300.118 229.385 300.137 229.32 300.179 229.227C300.221 229.133 300.295 228.965 300.356 228.835L300.482 228.564C300.547 228.433 300.617 228.307 300.687 228.177C300.757 228.046 300.771 228.013 300.818 227.934L301.061 227.533L301.182 227.337C301.308 227.145 301.439 226.963 301.579 226.781C303.285 224.405 304.565 221.751 305.363 218.937C305.471 218.47 305.583 218.027 305.69 217.537C311.066 220.929 317.077 224.537 324.459 230.767C339.131 243.171 360.859 244.515 373.739 227.645C380.632 218.605 380.931 203.784 376.017 194.073C364.243 170.805 347.615 171.607 323.283 172.382C315.476 172.634 304.206 162.213 288.246 162.213C275.506 162.213 259.009 176.213 270.284 194.922C270.667 191.623 272.37 189.023 273.737 186.709C276.122 182.686 277.387 181.851 278.301 182.798C275.734 185.099 273.99 188.177 273.336 191.562C271.628 200.065 267.507 210.089 266.803 217.107C266.019 224.84 268.767 229.147 273.336 233.277C275.338 235.074 275.245 237.342 275.175 239.274C275.061 240.689 274.841 242.093 274.517 243.474C269.752 244.407 264.717 247.744 260.68 253.713C251.473 267.311 232.787 290.668 219.669 299.852C213.164 304.411 207.839 306.437 200.116 304.206C194.451 302.573 153.305 289.235 152.763 290.285C152.591 290.617 152.357 291.102 152.077 291.709C151.326 291.242 149.464 290.775 148.582 290.197C141.951 285.903 141.325 285.591 136.649 278.469C133.821 274.157 129.948 272.841 126.448 272.907C123.886 267.227 121.212 261.469 119.14 257.581C117.007 253.582 114.161 251.295 111.561 253.671C110.007 255.071 103.231 260.097 99.9227 264.675C96.5254 269.379 98.1027 273.504 100.151 278.157C96.362 279.692 97.6174 284.335 99.176 287.205C100.94 290.472 100.791 286.809 100.935 291.573C100.991 293.468 105.135 294.84 105.77 297.691C106.045 298.933 111.37 303.959 112.523 304.271C112.989 305.13 113.456 306.003 113.923 306.908C118.79 315.896 122.029 313.105 126.989 306.245C127.307 305.811 127.643 305.312 127.988 304.794C127.988 305.032 128.151 305.158 128.455 305.125C134.148 304.505 142.767 307.981 144.965 307.533C145.544 307.417 149.063 297.883 150.999 294.098C147.555 301.971 141.199 317.94 142.977 318.533C160.389 324.305 163.893 325.164 198.511 333.863C216.893 338.483 227.239 338.996 238.238 329.089C243.731 324.142 249.153 319.088 254.511 314.085C253.923 337.181 253.853 363.841 253.769 383.063C217.121 413.686 119.285 509.301 121.609 512.4C122.575 513.679 123.821 515.167 125.267 516.777C121.786 519.736 118.305 523.147 116.401 525.849C116.919 523.866 117.567 522.013 117.703 520.492C117.754 519.955 97.8367 521.136 94.7147 521.299L93.9774 521.01C89.25 520.142 68.8613 508.839 68.334 508.816C63.8353 508.606 61.04 508.788 59.57 509.619C54.712 511.439 51.1094 517.552 52.3134 519.675C55.1414 524.566 63 535.976 73.7754 545.477ZM598.654 400.568C608.697 402.836 617.988 405.039 620.984 406.387L598.654 400.568ZM543.41 330.727C541.483 340.886 538.687 349.155 535.836 357.084L537.479 348.483C540.279 337.717 544.894 319.849 548.142 306.129C546 317.095 543.713 329.107 543.41 330.727ZM130.667 282.389C132.734 285.731 133.467 286.515 133.933 289.655C133.131 286.893 131.6 284.415 131.315 283.831C131.091 283.365 130.877 282.884 130.667 282.389ZM133.537 295.801C133.899 295.256 134.15 294.643 134.274 294C134.241 295.447 133.761 295.867 132.239 297.892C132.701 297.127 133.14 296.417 133.532 295.801H133.537ZM126.737 540.4C126.46 540.387 126.185 540.345 125.916 540.274C118.174 537.941 115.953 534.441 115.752 530.819C117.81 533.946 122.528 538.342 126.737 540.4Z" fill="white"/>
<path d="M303.935 481.194L308.742 480.975L308.042 480.041L307.356 479.108L303.847 479.267C290.78 479.878 278.441 480.447 262.617 480.457C261.987 479.467 260.983 475.09 259.751 466.023L258.865 466.639L257.973 467.259C259.084 475.104 260.255 480.793 261.347 481.927C261.47 482.069 261.621 482.184 261.79 482.264C261.96 482.344 262.144 482.388 262.332 482.393C278.339 482.384 290.771 481.805 303.935 481.194Z" fill="black"/>
<path d="M272.533 186.807L272.888 186.214C274.881 182.845 276.211 181.477 277.522 181.477C277.603 181.473 277.684 181.473 277.765 181.477C277.814 181.483 277.862 181.494 277.909 181.51C277.363 176.288 278.404 172.429 280.812 171.542L281.475 173.343C280.392 173.74 279.426 176.181 279.734 180.441C279.757 180.796 279.79 181.155 279.837 181.533C279.883 181.911 279.925 182.243 279.981 182.616C280.14 183.629 280.35 184.711 280.649 185.883C280.751 186.223 280.854 186.573 280.961 186.947C281.703 189.481 282.627 192.64 284.289 195.286C291.429 206.64 297.635 211.265 305.032 215.983L305.895 216.529L306.754 217.07L307.753 217.7C312.713 220.808 318.337 224.331 325.061 230.02C333.041 236.768 342.972 240.053 352.301 239.036C360.519 238.14 367.659 233.991 372.96 227.047C379.251 218.797 380.212 204.493 375.144 194.483C363.781 172.023 347.993 172.55 324.1 173.297L323.283 173.32C319.797 173.437 315.761 171.598 311.108 169.47C304.943 166.67 297.271 163.156 288.241 163.156C281.101 163.156 273.308 167.734 269.761 174.043C267.545 177.963 265.911 184.179 269.892 192.211C270.559 190.313 271.446 188.499 272.533 186.807Z" fill="black"/>
<path d="M97.0013 280.061C95.9887 282.861 97.58 286.319 98.308 287.663C98.924 288.792 99.4047 289.301 99.8807 289.553C99.904 289.907 99.9227 290.519 99.946 291.279V291.601C99.988 292.927 101.113 293.865 102.307 294.868C103.404 295.801 104.538 296.735 104.804 297.911C105.131 299.39 109.877 303.977 111.804 305.009C112.21 305.774 112.63 306.553 113.064 307.342C115.299 311.467 117.287 313.371 119.504 313.516H119.751C122.631 313.516 125.174 310.329 127.741 306.773C127.909 306.549 128.077 306.306 128.249 306.049C128.352 306.061 128.455 306.061 128.557 306.049C131.735 305.704 135.987 306.731 139.403 307.557C140.973 307.994 142.576 308.306 144.195 308.49C141.171 316.923 141.647 318.089 141.862 318.626C141.932 318.808 142.041 318.973 142.181 319.108C142.321 319.243 142.49 319.346 142.674 319.41C159.88 325.117 163.38 325.999 196.868 334.413L198.268 334.763C206.075 336.723 212.515 337.941 218.185 337.941C226.007 337.941 232.372 335.631 238.868 329.775C243.796 325.337 248.701 320.777 253.489 316.311C252.994 337.087 252.896 360.467 252.821 378.35C252.821 379.797 252.821 381.211 252.821 382.583L253.783 381.78C254.109 381.509 254.427 381.243 254.744 380.987C254.744 380.123 254.744 379.251 254.744 378.355C254.781 369.591 254.823 359.497 254.917 349.039C258.65 349.071 262.332 349.179 266.065 349.356C264.787 360.229 263.895 369.913 264.199 373.842L264.745 373.52C264.861 373.455 264.987 373.389 265.123 373.329C265.426 373.181 265.738 373.05 266.056 372.937C265.589 360.836 273.807 306.763 273.896 306.203L273.975 305.662L273.551 305.317C272.1 304.151 270.716 302.905 269.407 301.583C268.94 301.117 268.511 300.65 268.1 300.183C259.803 290.771 262.5 283.253 265.165 275.945C265.706 274.456 266.261 272.911 266.714 271.39C269.514 261.921 270.853 258.151 274.927 249.867C276.029 248.467 277.503 247.949 279.23 247.87C277.956 251.809 277.83 256.401 278.931 261.263C280.107 266.397 282.263 274.573 285.115 284.853C285.311 285.558 285.507 286.253 285.712 287C291.732 308.597 300.575 338.651 309.778 368.667L310.067 369.6C310.147 369.861 310.226 370.123 310.31 370.384C310.31 370.44 310.343 370.491 310.357 370.547C307.995 370.645 304.999 370.767 301.677 370.925C295.577 371.219 288.372 371.635 281.951 372.232C276.71 372.722 271.997 373.329 268.837 374.099C267.742 374.324 266.68 374.689 265.678 375.186L265.496 375.289C263.247 376.595 259.509 379.461 254.716 383.46L253.755 384.263L252.793 385.075C236.507 398.865 210 423.691 188.011 444.878C152.143 479.449 124.376 507.99 122.593 512.078C123.391 513.114 124.32 514.239 125.351 515.415L126 516.133L126.649 516.847C131.721 522.39 137.281 527.466 143.262 532.014L144.06 532.602C144.335 532.798 144.601 532.989 144.872 533.176C149.506 536.443 153.538 538.309 155.605 537.469C161.485 535.052 185.304 517.617 210.518 499.161C229.185 485.483 245.168 473.858 257.679 465.136L258.58 464.506L259.467 463.89C271.889 455.275 280.672 449.727 285.021 448.154C283.929 445.998 282.688 443.553 281.461 441.047C278.367 434.849 274.512 427.135 273.854 426.379C273.934 426.461 274.031 426.523 274.139 426.561L274.82 424.774C275.473 425.021 275.903 425.633 283.173 440.174C284.466 442.764 285.773 445.387 286.935 447.673H287.047C287.151 447.666 287.255 447.666 287.359 447.673C287.572 447.701 287.776 447.772 287.96 447.882C288.144 447.992 288.303 448.139 288.428 448.313C291.9 453.259 294.961 457.767 297.897 462.126C302.069 468.291 305.83 473.839 309.671 478.963L310.371 479.897L311.08 480.83C329.406 504.565 351.274 519.405 430.775 545.776C431.083 545.174 431.587 544.199 432.278 542.869C432.413 542.603 432.563 542.313 432.745 542.019C432.927 541.725 433.029 541.469 433.183 541.179C434.994 537.721 437.691 532.635 441.261 526.083C441.415 525.807 441.569 525.523 441.728 525.238L442.195 524.393L443.898 521.285C442.582 520.114 439.003 517.823 434.616 515.013C422.814 507.458 403.382 495.007 387.828 479.584H389.228H390.558L478.081 478.856L477.699 477.624C474.525 467.465 437.715 400.657 400.232 342.193V341.479H399.765C393.517 331.744 387.254 322.252 381.131 313.297C394.044 318.323 407.022 322.989 419.603 327.507C438.928 334.451 455.616 340.447 466.737 345.856C466.946 345.955 467.177 346.002 467.409 345.992C467.64 345.982 467.866 345.916 468.067 345.8C468.557 345.506 469.401 345.002 470.4 339.696C476.089 340.251 479.01 343.611 481.829 346.873C484.512 349.972 487.093 352.94 491.629 352.94C493.407 352.94 495.479 352.473 497.975 351.386L498.68 351.064C499.175 350.831 499.683 350.574 500.211 350.294C500.598 350.415 500.985 350.537 501.382 350.649C504.678 351.569 508.021 352.31 511.397 352.87C513.623 353.257 515.849 353.603 518.051 353.943C520.483 354.312 522.858 354.681 525.135 355.091C526.069 355.264 527.002 355.441 527.935 355.633L528.869 355.838L529.802 356.053C531.328 356.417 532.784 356.823 534.151 357.294L534.674 357.481L534.903 357.56L534.945 357.448L535.089 357.499C535.351 357.588 535.617 357.672 535.873 357.765L535.206 359.557L534.539 359.319L534.072 359.161L533.633 359.016C532.261 358.582 530.833 358.199 529.298 357.859L528.365 357.653L527.431 357.462C527.077 358.663 526.699 359.847 526.297 361.013C521.631 359.753 514.033 356.781 508.382 354.242C505.657 353.714 502.962 353.039 500.309 352.221L500.696 352.483C504.163 354.816 518.182 360.766 525.667 362.824C524.874 365.05 524.02 367.248 523.152 369.488C520.856 375.429 518.485 381.565 516.535 389.41L515.881 392.037L516.278 391.734C516.278 391.799 516.278 391.86 516.306 391.921C516.591 393.157 518.079 393.568 519.339 393.787C528.421 395.351 543.793 399.257 560.065 403.396C582.129 408.996 604.945 414.797 612.631 414.797C614.418 414.797 623.611 409.5 624.764 407.461C624.896 407.262 624.97 407.031 624.979 406.793C624.988 406.556 624.931 406.32 624.815 406.112C624.764 406.034 624.704 405.963 624.638 405.897C627.051 401.627 629.897 390.829 633.831 374.089L633.901 373.777C637.117 373.655 640.407 373.576 643.664 373.492C653.711 373.24 664.099 372.983 671.963 371.649L671.645 369.782C663.917 371.089 653.595 371.35 643.617 371.597C640.533 371.677 637.415 371.751 634.359 371.863C635.017 369.063 635.525 366.982 635.759 366.263C636.527 363.868 637.15 361.43 637.625 358.96C642.077 358.769 646.31 358.395 648.233 357.784L647.649 355.959C645.993 356.487 642.166 356.837 638.013 357.033C639.576 348.927 640.92 338.366 642.152 328.72C643.613 317.235 644.994 306.39 646.291 303.655C646.393 303.449 646.442 303.221 646.435 302.992C646.427 302.763 646.364 302.538 646.249 302.339C645.447 300.897 641.83 300.347 634.335 299.511C631.479 299.194 628.777 298.891 627.704 298.55C622.897 297.01 563.262 287.154 552.837 286.468V286.314L551.824 286.431H551.791C551.693 286.431 551.6 286.459 551.507 286.473C547.974 286.967 545.44 288.885 543.2 290.589C542.645 291.013 542.117 291.415 541.581 291.793C537.717 294.513 537.077 303.431 537.283 307.762C537.306 308.303 537.306 308.887 537.283 309.479C523.437 307.067 496.51 304.897 490.215 315.201C489.55 315.691 488.954 316.266 488.441 316.913C488.278 317.119 488.124 317.329 487.975 317.539C486.575 317.455 485.147 317.394 483.775 317.338C480.214 317.189 476.849 317.049 474.74 316.531C474.495 316.488 474.246 316.477 473.998 316.498H472.817C473.018 313.441 473.121 311.397 473.125 311.365L473.163 310.632L472.467 310.403C458.509 305.839 400.134 281.111 357.378 261.287H357.425H357.364C339.873 253.171 325.01 245.887 316.89 241.127C310.879 237.608 304.934 235.653 299.53 235.284C299.997 232.255 300.795 229.301 302.33 227.351C304.12 224.869 305.459 222.092 306.287 219.147C306.287 219.119 306.287 219.091 306.287 219.063L305.433 218.521L304.579 217.985C296.725 213.01 290.215 208.329 282.646 196.327C280.84 193.452 279.874 190.153 279.099 187.502C278.796 186.461 278.423 185.169 278.063 184.319C277.954 184.002 277.785 183.709 277.564 183.456C277.54 183.431 277.511 183.411 277.48 183.395C277.433 183.395 276.659 183.568 274.512 187.199L274.153 187.801C273.588 188.734 272.991 189.756 272.473 190.839C272.431 191.016 272.384 191.193 272.347 191.375C271.978 193.214 271.488 195.141 270.947 197.092L270.863 197.825L270.779 197.685C270.284 199.444 269.752 201.213 269.225 202.963C267.671 208.096 266.201 212.977 265.795 217.014C264.959 225.227 267.937 229.74 272.659 233.987C274.311 235.475 274.246 237.37 274.181 239.241C274.093 240.392 273.923 241.535 273.672 242.662C268.646 243.852 263.676 247.534 259.849 253.185C251.216 265.935 232.507 289.674 219.081 299.077C212.921 303.399 207.881 305.471 200.345 303.277C198.912 302.862 195.146 301.681 190.377 300.183C183.521 298.032 174.123 295.083 166.577 292.829C152.502 288.629 152.343 288.927 151.872 289.837C151.788 290.001 151.69 290.201 151.578 290.435C151.349 290.341 151.111 290.253 150.845 290.155C150.23 289.95 149.633 289.693 149.063 289.385L148.638 289.109C142.515 285.147 141.876 284.732 137.415 277.933C134.33 273.215 130.2 272.067 127.05 271.955C124.558 266.467 121.982 260.913 119.966 257.133C118.795 254.94 116.881 252.233 114.408 251.809C113.773 251.708 113.123 251.76 112.513 251.962C111.902 252.163 111.349 252.507 110.899 252.966C110.577 253.26 109.965 253.741 109.237 254.366C106.437 256.648 101.771 260.461 99.1293 264.129C95.634 268.963 96.978 273.271 98.896 277.727C98.0146 278.264 97.3453 279.088 97.0013 280.061ZM237.571 328.361C226.935 337.941 216.991 337.507 198.716 332.915L197.339 332.57C164.127 324.221 160.473 323.297 143.607 317.711C143.537 316.778 144.158 314.51 145.129 311.645C151.387 312.004 170.184 312.111 191.921 312.2C212.954 312.303 237.188 312.419 253.559 312.825C253.559 313.105 253.559 313.381 253.559 313.661C248.323 318.505 242.951 323.507 237.571 328.361ZM440.916 300.067C440.258 300.182 439.591 300.243 438.923 300.249C430.635 299.917 422.562 300.916 414.759 301.882C412.02 302.223 409.183 302.573 406.359 302.862C394.389 304.099 382.223 304.729 370.155 305.135C367.584 303.865 364.588 302.437 361.396 300.935C352.8 296.954 341.987 292.273 338.567 291.391L338.1 293.258C341.871 294.229 355.707 300.309 366.044 305.256C360.957 305.41 355.889 305.536 350.868 305.657L341.287 305.895L340.191 305.928L339.094 305.956C333.452 306.115 327.777 306.301 322.089 306.558L321.099 306.605L320.105 306.656C311.346 307.076 302.573 307.678 293.883 308.607C291.419 300.118 289.179 292.273 287.247 285.334C287.042 284.592 286.837 283.859 286.636 283.141C284.181 274.274 282.273 267.092 281.115 262.243C283.206 262.505 286.897 262.71 291.209 262.906L293.407 262.99C295.223 263.06 297.113 263.121 299.007 263.177L300.753 263.228L302.619 263.275L303.473 263.298L304.533 263.326H305.606C312.457 263.485 318.346 263.569 319.816 263.587C325.943 263.671 331.842 263.709 337.083 263.709C340.186 263.709 343.061 263.709 345.623 263.667C352.553 263.587 355.642 263.433 357.089 263.247C383.899 275.697 416.733 289.991 440.916 300.067ZM471.175 312.023C471.086 313.689 470.988 315.369 470.881 317.039L468.645 338.735C468.179 341.446 467.712 343.341 467.245 344.013C461.603 341.292 454.594 338.413 446.581 335.379C451.668 333.979 463.302 332.971 467.899 332.971V331.058C464.212 331.058 448.187 332.122 443.884 334.357C436.66 331.646 428.689 328.757 420.215 325.733C406.961 320.973 393.265 316.05 379.685 310.716C379.409 310.142 378.247 309.279 373.879 307.006L373.711 306.922C384.669 306.511 395.691 305.891 406.569 304.766C409.402 304.477 412.249 304.122 415.002 303.781C423.085 302.778 430.715 301.835 438.853 302.162C440.604 302.116 442.342 301.845 444.024 301.355C456.353 306.441 466.121 310.296 471.175 312.009V312.023ZM368.741 437.435C367.598 434.086 366.718 430.654 366.109 427.168C365.596 424.419 358.862 401.903 357.364 396.9C360.813 396.172 370.501 395.472 380.329 395.267C395.878 394.949 401.394 395.962 402.262 396.583C402.654 398.053 404.469 402.061 406.957 407.545C410.69 415.819 415.856 427.145 418.623 435.47L418.665 435.605C418.885 436.263 419.081 436.898 419.263 437.514C421.097 443.749 421.129 448.061 419.333 450.651C417.993 452.587 415.599 453.6 412.062 453.74C387.296 454.72 375.625 454.258 369.479 439.339C369.213 438.718 368.975 438.088 368.741 437.435ZM420.425 434.845C417.625 426.445 412.449 415.049 408.679 406.737C406.345 401.604 404.329 397.152 404.068 396.004C403.999 395.753 403.875 395.521 403.707 395.322C403.538 395.124 403.329 394.965 403.093 394.856C397.689 391.879 360.397 393.703 355.843 395.323L354.984 395.626L355.245 396.499C355.329 396.779 363.683 424.583 364.224 427.513C364.825 430.906 365.675 434.25 366.767 437.519L364.761 437.589L363.743 437.621L362.74 437.659L359.375 437.761L358.4 437.789L357.415 437.817C350.023 438.027 342.603 438.158 335.015 438.158V440.067C342.79 440.067 350.369 439.927 357.919 439.712L358.904 439.684L359.879 439.656L363.435 439.544L364.439 439.511L365.447 439.474L367.486 439.404C370.146 446.101 373.842 450.296 379.041 452.765C384.239 455.233 390.917 455.966 399.509 455.966C403.317 455.966 407.512 455.826 412.141 455.644C416.281 455.481 419.23 454.16 420.91 451.729C422.987 448.723 423.099 444.047 421.255 437.491C428.316 437.444 435.969 437.491 443.072 437.523C447.337 437.547 451.369 437.57 454.907 437.57C465.719 457.035 473.247 471.637 475.384 476.985L388.584 477.708H387.282H385.929L375.382 477.797H374.253H373.105L348.745 477.997C343.714 468.277 331.501 431.662 318.729 390.843C325.005 390.021 331.469 389.62 337.937 389.391L339.085 389.354L340.228 389.317C341.696 389.273 343.166 389.237 344.638 389.209L345.623 389.186H346.612L351.279 389.107C360.561 388.948 370.165 388.789 379.554 387.879C386.171 387.24 394.599 387.539 402.752 387.828C410.905 388.117 419.421 388.416 426.048 387.758V387.557C436.445 404.936 445.97 421.489 453.852 435.624C450.585 435.624 446.931 435.624 443.091 435.582C435.792 435.54 427.915 435.503 420.691 435.554C420.579 435.33 420.509 435.092 420.425 434.845ZM425.04 385.933C418.661 386.484 410.611 386.199 402.808 385.933C394.595 385.639 386.101 385.341 379.358 385.994C370.025 386.895 360.486 387.053 351.237 387.207L346.075 387.301H345.091H344.101C342.365 387.338 340.628 387.385 338.889 387.441L337.736 387.478L336.579 387.52C330.372 387.763 324.175 388.178 318.136 388.985C316.395 383.418 314.645 377.785 312.909 372.125C312.811 371.807 312.713 371.495 312.62 371.191C312.527 370.888 312.466 370.697 312.391 370.449C312.391 370.384 312.349 370.319 312.331 370.249C312.251 370.001 312.177 369.754 312.102 369.507C312.004 369.189 311.906 368.877 311.813 368.573C309.4 360.733 307.006 352.851 304.687 345.133C307.903 344.634 311.146 344.322 314.398 344.199C313.738 344.706 313.317 345.707 313.133 347.2C312.979 348.511 313.805 352.268 315.691 353.267C316.008 353.437 316.362 353.528 316.722 353.533C317.319 353.516 317.889 353.28 318.323 352.87C319.998 351.47 319.569 348.721 318.691 346.803C318.187 345.711 317.408 344.605 316.484 344.111C320.866 343.901 326.051 343.747 331.665 343.644L332.659 343.621H333.653C340.293 343.499 347.457 343.429 354.559 343.392H356.533C369.6 343.336 382.275 343.392 390.815 343.392L398.701 343.42C407.759 357.532 416.673 371.98 425.04 385.933ZM317.296 348.46C317.623 349.515 317.763 350.84 317.091 351.395C316.787 351.657 316.68 351.601 316.624 351.559C315.723 351.092 314.958 348.292 315.065 347.396C315.205 346.225 315.467 345.851 315.532 345.758C315.863 345.865 316.778 346.817 317.296 348.465V348.46ZM390.815 341.46C381.677 341.427 369.035 341.376 356.16 341.432H354.172C346.976 341.469 339.761 341.544 333.093 341.675H332.099H331.105C318.607 341.941 308.303 342.417 304.131 343.243C300.687 331.772 297.402 320.661 294.425 310.417C303.133 309.484 311.934 308.901 320.726 308.485L321.72 308.439L322.709 308.392C328.557 308.131 334.376 307.925 340.195 307.785L341.287 307.757L342.379 307.725L350.91 307.515C357.131 307.361 363.421 307.207 369.745 306.997C373.17 308.686 375.877 310.114 377.211 310.959L377.771 311.775C384.305 321.267 390.936 331.259 397.488 341.437L390.815 341.46ZM304.645 261.403L303.562 261.375L302.493 261.333L299.651 261.254L298.018 261.207L296.45 261.156C294.989 261.109 293.594 261.058 292.278 261.007L289.772 260.904C285.255 260.703 281.969 260.479 280.667 260.241C279.734 255.719 279.939 251.482 281.223 247.903C281.335 247.59 281.461 247.282 281.591 246.969C281.722 246.657 281.862 246.353 282.011 246.036C282.133 245.793 282.249 245.569 282.385 245.313C282.385 245.266 282.436 245.219 282.464 245.173L282.497 245.121C282.646 244.86 282.809 244.603 282.963 244.351C282.991 244.313 283.016 244.272 283.038 244.23C283.164 244.048 283.299 243.875 283.43 243.693L283.663 243.381C284.523 242.261 285.536 241.268 286.673 240.431C289.632 238.261 293.281 237.165 297.355 237.104H297.687H298.317C298.634 237.104 298.956 237.127 299.278 237.151C304.411 237.473 310.114 239.349 315.915 242.751C323.596 247.245 337.293 254.007 353.537 261.585C344.582 261.996 322.336 261.833 304.645 261.403ZM271.105 311.803C268.772 311.5 264.614 311.267 259.117 311.075L256.401 310.991L255.523 310.968C255.589 308.705 255.659 306.479 255.733 304.313C255.817 301.854 255.869 299.287 255.925 296.567C256.074 289.198 256.242 281.106 257.129 273.555C259.574 273.555 262.019 273.555 263.965 273.579L263.349 275.305C260.624 282.8 257.6 291.2 266.667 301.467C267.078 301.933 267.512 302.4 267.974 302.867C269.217 304.136 270.529 305.335 271.903 306.46C271.763 307.361 271.483 309.227 271.105 311.78V311.803ZM264.857 270.858C264.779 271.129 264.695 271.399 264.605 271.67C262.738 271.642 260.092 271.614 257.371 271.623C258.809 261.077 261.814 251.837 268.399 247.492C269.845 246.548 271.437 245.851 273.112 245.429C272.524 248.192 272.277 249.517 272.645 250.194C268.921 257.791 267.554 261.697 264.857 270.835V270.858ZM254.907 347.158C255.01 336.247 255.169 325.01 255.43 314.491C255.43 313.941 255.444 313.395 255.472 312.853L257.138 312.9C263.569 313.091 268.417 313.339 270.83 313.661C269.635 321.86 267.736 335.225 266.266 347.461C262.458 347.279 258.725 347.167 254.907 347.135V347.158ZM612.598 412.935C605.131 412.935 582.451 407.167 560.504 401.59C544.194 397.446 528.771 393.531 519.633 391.949C519.127 391.895 518.635 391.748 518.182 391.515C518.49 390.857 520.478 389.424 521.953 388.36C523.889 386.96 526.041 385.406 527.665 383.693C530.614 385.947 541.721 388.645 560.392 392.635C564.503 393.512 567.751 394.203 568.601 394.501C572.334 395.729 581.485 397.768 591.173 399.933C603.218 402.621 619.705 406.303 621.194 407.647C621.325 407.764 621.473 407.86 621.633 407.932C618.977 409.836 613.62 412.837 612.598 412.911V412.935ZM634.135 301.457C637.546 301.835 643.118 302.456 644.425 303.212C643.053 306.605 641.755 316.792 640.262 328.519C639.011 338.319 637.639 349.076 636.062 357.149C631.47 357.308 626.827 357.275 624.526 357.075L624.358 358.979C625.641 359.095 627.825 359.156 630.383 359.156C632.039 359.156 633.845 359.128 635.67 359.072C635.222 361.308 634.644 363.516 633.939 365.685C633.649 366.52 633.103 368.793 632.352 371.975C627.208 372.125 622.076 372.561 616.98 373.282L617.283 375.149C622.128 374.458 627.008 374.036 631.899 373.884C630.541 379.657 628.703 387.473 626.855 394.016C624.703 401.623 623.378 404.455 622.697 405.51H621.404C617.881 403.914 607.404 401.511 591.598 397.983C581.952 395.831 572.847 393.783 569.198 392.602C568.265 392.289 565.124 391.622 560.798 390.693C555.072 389.475 547.237 387.8 540.731 386.143C531.235 383.721 529.191 382.499 528.752 382.069C530.619 374.281 533.05 367.57 535.626 360.472C538.841 351.605 542.159 342.44 544.357 330.881C544.913 327.945 547.064 316.708 549.061 306.432C551.021 298.149 552.501 291.312 552.795 288.377C563.001 289.053 622.958 299.035 627.125 300.365C628.385 300.79 631.05 301.089 634.135 301.434V301.457ZM515.135 309.391C522.525 309.452 529.898 310.131 537.175 311.421V311.444L538.109 311.612L539.042 311.785L539.653 311.901C541.203 312.223 542.509 312.536 543.489 312.835V312.769C543.788 312.849 544.063 312.923 544.311 312.998L543.769 314.832C542.565 314.482 540.871 314.085 538.827 313.689L537.894 313.516L536.961 313.348C536.727 315.327 536.363 317.464 535.92 319.685C533.073 319.247 529.289 318.253 524.986 317.123C517.519 315.168 509.119 312.951 501.979 312.648C499.75 313.103 497.601 313.89 495.605 314.981C503.193 313.371 515.153 316.507 524.501 318.962C528.803 320.091 532.593 321.09 535.528 321.552C534.665 325.575 533.596 329.784 532.583 333.769C531.211 339.145 530.031 343.789 529.62 346.957C529.317 349.27 528.89 351.564 528.341 353.831C525.173 353.159 521.808 352.632 518.285 352.095C512.75 351.246 507.047 350.364 501.727 348.829C501.776 348.603 501.776 348.369 501.727 348.143L500.733 348.11L499.749 348.063H499.282L497.737 347.97C496.967 347.914 496.197 347.858 495.441 347.793L494.597 347.713H494.471C493.682 347.639 492.931 347.555 492.235 347.471C490.434 347.251 489.048 347.004 488.605 346.78L489.482 345.077C489.849 345.193 490.225 345.276 490.607 345.324C490.994 345.385 491.461 345.45 492.007 345.515L492.52 345.576L493.281 345.66L495.245 345.856H495.465C497.135 346.005 498.923 346.131 500.514 346.211L501.867 346.267C502.465 346.267 503.015 346.295 503.487 346.295C503.785 346.103 504.126 345.893 504.527 345.655C506.529 344.489 506.109 342.533 505.736 340.811C505.363 339.089 504.919 337.036 506.333 334.833C508.065 332.131 502.6 322.322 502.53 322.233C500.957 319.634 496.981 318.523 492.357 317.977C491.965 317.931 491.563 317.889 491.162 317.851C491.171 317.815 491.182 317.779 491.195 317.744C491.325 317.349 491.49 316.966 491.689 316.601C492.468 315.221 493.594 314.069 494.956 313.259L495.161 313.147H495.115C499.987 310.123 508.167 309.4 515.139 309.4L515.135 309.391ZM258.356 258.683C256.955 262.883 255.981 267.214 255.449 271.609C252.793 271.637 250.217 271.703 248.346 271.838C252.093 267.181 255.523 262.635 258.356 258.683ZM153.347 291.2C157.019 291.709 179.013 298.615 189.826 302.008C194.605 303.506 198.375 304.691 199.831 305.111C208.063 307.487 213.729 305.158 220.201 300.622C228.247 294.985 238.131 284.326 246.671 273.891C247.604 273.677 251.23 273.569 255.206 273.532C254.329 281.106 254.161 289.147 254.011 296.492C253.955 299.203 253.904 301.765 253.82 304.206C253.745 306.381 253.675 308.611 253.61 310.879C237.501 310.473 213.817 310.357 191.931 310.249C170.814 310.147 152.474 310.058 145.777 309.727C147.523 304.803 149.977 298.774 151.769 294.658C151.967 294.247 152.191 293.849 152.441 293.468C152.507 293.374 152.563 293.274 152.609 293.169C152.817 293.072 152.995 292.921 153.124 292.731C153.253 292.541 153.328 292.32 153.342 292.091C153.352 291.886 153.303 291.682 153.202 291.503C153.253 291.415 153.3 291.307 153.347 291.2ZM100.679 265.235C103.185 261.772 107.73 258.057 110.446 255.836C111.216 255.206 111.846 254.707 112.191 254.375C112.606 253.947 113.168 253.693 113.764 253.666C113.87 253.666 113.977 253.676 114.081 253.694C115.397 253.918 116.928 255.5 118.281 258.034C120.19 261.609 122.617 266.798 124.997 272.034L124.623 272.081C121.021 272.594 117.395 274.531 116.872 276.229C116.321 278.012 116.405 279.333 117.152 280.275C118.417 281.881 121.035 281.717 123.807 281.54C126.14 281.391 128.833 281.223 129.561 282.413L129.817 282.828L130.429 284.228C130.503 284.396 130.625 284.62 130.811 284.961C131.712 286.532 132.445 288.193 133 289.917C133.07 290.435 133.131 291.013 133.191 291.699C133.272 292.437 133.316 293.178 133.322 293.921C133.216 294.4 133.023 294.855 132.753 295.265C132.365 295.871 131.927 296.581 131.469 297.332C131.152 297.752 130.793 298.237 130.373 298.821L130.093 299.203C128.095 301.929 127.195 303.436 127.055 304.435C126.765 304.869 126.481 305.279 126.219 305.643C123.583 309.297 121.455 311.71 119.653 311.589C118.207 311.495 116.611 309.801 114.777 306.409C114.31 305.513 113.843 304.649 113.377 303.8L101.005 277.76C98.994 273.205 97.594 269.509 100.679 265.235Z" fill="black"/>
<path d="M87.7613 253.358L88.3867 251.533C86.9867 251.067 85.2087 249.979 83.3093 248.841C81.41 247.702 79.352 246.47 77.6067 245.821L76.9393 247.613C78.5213 248.201 80.4533 249.363 82.3247 250.483C84.3127 251.692 86.1887 252.817 87.7613 253.358Z" fill="black"/>
<path d="M103.133 240.403L103.175 240.459C102.863 239.993 100.105 234.351 99.7733 233.623L98 234.425C98.028 234.491 101.243 241.164 101.626 241.626L103.133 240.403Z" fill="black"/>
<path d="M119 238.779C120.297 236.194 121.301 234.145 121.431 233.203L119.532 232.941C119.439 233.646 118.039 236.427 117.287 237.921C116.919 238.653 116.601 239.293 116.429 239.671L118.174 240.455C118.333 240.114 118.645 239.493 119 238.779Z" fill="black"/>
<path d="M131.824 252C133.518 250.941 135.837 249.485 136.458 249.2L135.651 247.464C134.974 247.777 133.215 248.864 130.807 250.385C129.733 251.057 128.721 251.692 128.268 251.953L129.225 253.61C129.705 253.325 130.69 252.709 131.824 252Z" fill="black"/>
<path d="M301.42 288.675C300.81 288.397 300.127 288.321 299.472 288.461C298.816 288.6 298.223 288.947 297.78 289.45C296.805 290.649 296.963 292.474 298.205 294.327C299.656 296.497 301.518 297.505 302.871 297.505C303.06 297.505 303.248 297.483 303.431 297.439C303.75 297.37 304.039 297.201 304.255 296.957C304.472 296.713 304.605 296.406 304.635 296.081C305.079 290.584 302.288 289.021 301.42 288.675ZM302.736 295.587C302.209 295.521 300.953 294.999 299.796 293.253C298.914 291.937 298.942 291.041 299.264 290.645C299.453 290.464 299.693 290.347 299.952 290.31C300.211 290.274 300.474 290.319 300.706 290.439C301.817 290.897 302.913 292.479 302.736 295.587Z" fill="black"/>
<path d="M307.165 316.829C305.606 317.212 305.363 319.503 305.298 320.255C305.195 321.188 305.335 324.875 307.865 325.603C308.251 325.719 308.651 325.781 309.055 325.785C309.431 325.801 309.807 325.725 310.147 325.562C310.487 325.399 310.782 325.155 311.005 324.851C312.191 323.223 311.145 320.152 310.025 318.491C308.817 316.727 307.715 316.689 307.165 316.829ZM309.4 323.773C309.265 323.909 308.868 323.909 308.364 323.773C307.258 323.451 307.109 321.053 307.174 320.469C307.19 319.862 307.35 319.267 307.641 318.733C308.037 318.934 308.896 320.035 309.363 321.58C309.741 322.84 309.601 323.582 309.4 323.773Z" fill="black"/>
<path d="M328.953 378C328.774 377.486 328.559 376.986 328.309 376.502C327.717 375.368 326.769 374.108 325.453 374.024H325.318H325.29C324.919 374.029 324.556 374.134 324.24 374.327C323.451 374.794 322.812 375.811 322.331 377.361C322.037 378.294 322.849 382.667 323.731 383.273C324.987 384.155 326.065 384.594 326.998 384.594C327.511 384.599 328.011 384.435 328.421 384.127C329.821 383.091 329.723 380.697 329.182 378.705C329.098 378.467 329.028 378.219 328.953 378ZM327.255 382.592C327.054 382.741 326.321 382.737 324.954 381.789C324.641 381.108 324.077 378.499 324.165 377.897C324.669 376.297 325.178 375.928 325.318 375.928C325.626 375.928 326.499 376.735 327.143 378.621C327.861 380.725 327.67 382.275 327.255 382.587V382.592Z" fill="black"/>
<path d="M73.1407 546.196C75.3947 548.179 77.9147 550.508 80.5793 552.972C88.8113 560.574 98.1353 569.193 106.825 574.518C108.212 575.373 109.539 576.323 110.796 577.36C112.14 578.433 113.153 579.175 114.221 579.175C115.201 579.175 116.228 578.545 117.605 576.968C118.472 575.994 119.395 575.07 120.367 574.201C121.893 572.801 122.901 571.867 122.701 570.701C122.674 570.538 122.622 570.38 122.547 570.234C124.021 569.058 126.784 566.081 132.473 558.628C133.705 557.018 141.503 546.607 141.615 545.991C141.969 544.124 141.643 542.565 140.653 541.436C139.664 540.307 138.32 539.803 136.71 539.513C138.656 538.155 141.059 536.368 143.365 534.445L142.557 533.867L141.759 533.274C135.823 528.822 129.575 522.825 125.188 518.065L124.544 517.356L123.9 516.642C121.993 518.288 120.172 520.031 118.445 521.864C118.543 521.43 118.615 520.991 118.659 520.548L118.687 520.081L118.384 519.769C117.917 519.302 117.675 519.031 96.5347 520.203L94.8733 520.296L94.3273 520.081L94.15 520.03C90.9067 519.433 79.3847 513.408 73.192 510.169C68.74 507.836 68.712 507.836 68.3807 507.836C63.4247 507.607 60.6433 507.836 59.0473 508.769C55.4353 510.197 52.514 513.749 51.5153 516.572C50.988 518.033 50.9693 519.26 51.464 520.128C54.4973 525.373 62.4353 536.774 73.1407 546.196ZM68.166 509.745C68.6327 509.955 70.434 510.893 72.324 511.882C80.934 516.385 90.384 521.215 93.73 521.911L94.5793 522.242H94.7847L96.6513 522.139C107.665 521.528 114.385 521.248 116.625 521.295C116.471 522.093 116.214 522.984 115.948 523.913C115.808 524.379 115.663 524.916 115.523 525.448C114.966 527.301 114.731 529.236 114.828 531.169C115.155 534.973 117.581 538.785 125.631 541.193C125.911 541.268 126.197 541.317 126.485 541.338C127.396 541.401 128.31 541.401 129.22 541.338L129.906 541.305C130.681 541.263 131.521 541.221 132.379 541.203C133 541.203 133.625 541.203 134.246 541.203C136.351 541.282 138.297 541.641 139.235 542.715C139.799 543.359 139.981 544.264 139.785 545.477C137.895 548.343 123.522 568.031 120.918 569.067C117.185 568.601 104.655 559.487 89.5627 546.289C74.984 533.545 62.9907 521.327 61.04 517.239C59.85 514.747 58.7347 512.05 59.472 510.939C60.1393 509.936 62.6173 509.679 65.324 509.679C66.2667 509.67 67.2373 509.703 68.166 509.745ZM53.3447 517.211C54.1908 515.147 55.5633 513.34 57.3253 511.971C57.358 513.571 58.1327 515.578 59.3087 518.037C61.74 523.129 76.0433 536.984 88.3027 547.703C94.318 552.958 114.245 570.01 120.619 570.925C120.675 570.951 120.73 570.98 120.783 571.013C120.271 571.656 119.698 572.247 119.07 572.777C118.043 573.691 117.07 574.665 116.158 575.694C115.225 576.772 114.609 577.276 114.179 577.243C113.75 577.21 112.952 576.613 111.995 575.843C110.673 574.759 109.281 573.763 107.828 572.861C99.2973 567.639 90.0433 559.085 81.8813 551.539C79.2073 549.071 76.678 546.733 74.4147 544.735C63.9007 535.481 56.112 524.3 53.1673 519.148C53.004 518.905 52.9713 518.247 53.3447 517.216V517.211Z" fill="black"/>
<path d="M420.042 594.347C420.789 595.621 422.375 597.109 425.815 596.96C428.615 596.839 431.928 597.109 435.414 597.399C438.545 597.655 441.817 597.921 444.999 597.921C451.169 597.921 457.016 596.913 460.866 592.858C469.135 584.141 472.038 578.587 476.056 570.925C477.419 568.311 478.963 565.357 480.891 561.969C483.845 556.78 488.488 547.391 486.435 542.803C486.133 542.137 485.673 541.554 485.095 541.106C484.517 540.657 483.837 540.357 483.117 540.232C482.493 540.09 481.901 539.832 481.371 539.471C480.949 539.158 480.466 538.938 479.953 538.825C479.44 538.711 478.909 538.707 478.394 538.813C477.433 537.413 475.375 536.069 472.01 533.993L471.347 533.582C470.605 533.115 469.765 532.583 468.86 532.005C460.927 526.909 454.057 522.877 450.786 525.182C450.341 525.523 449.975 525.957 449.717 526.455C449.458 526.953 449.311 527.501 449.288 528.061C447.771 527.189 445.965 526.227 443.907 525.261C443.753 525.541 443.595 525.826 443.441 526.106C443.287 526.386 443.133 526.671 442.974 526.951C439.399 533.507 436.697 538.617 434.877 542.066C434.723 542.36 434.579 542.645 434.434 542.911C434.289 543.177 434.135 543.494 433.967 543.765C435.092 544.283 436.366 544.824 437.701 545.309C437.629 545.387 437.564 545.469 437.505 545.557C436.861 546.49 436.753 549.379 436.753 555.515C436.753 557.405 434.887 568.769 434.154 570.015C433.483 570.644 432.733 571.183 431.923 571.62C430.939 572.231 429.59 573.071 427.779 574.378C427.279 574.709 426.759 575.009 426.221 575.274C424.354 576.249 422.044 577.463 421.442 580.337C421.377 580.645 421.237 581.126 421.087 581.635C420.672 583.035 420.154 584.719 420.28 585.979C419.393 587.697 418.465 591.64 420.042 594.347ZM423.351 580.701C423.766 578.709 425.483 577.813 427.14 576.94C427.761 576.636 428.36 576.289 428.932 575.899C430.687 574.635 431.951 573.851 432.964 573.221C433.832 572.733 434.646 572.154 435.391 571.494C436.595 571.303 440.174 570.701 440.645 570.621C446.381 569.655 446.381 569.655 446.633 569.366L445.877 568.703L445.671 567.812C445.205 567.91 439.287 568.913 436.38 569.394C437.505 565.404 438.713 556.645 438.713 555.487C438.713 553.079 438.713 547.442 439.124 546.621C439.325 546.331 440.02 546.439 441.135 546.621C442.495 546.954 443.909 547.003 445.289 546.765C447.221 546.341 449.279 544.955 451.015 541.305C451.39 540.509 451.722 539.693 452.009 538.86L452.144 538.459C452.611 537.175 453.077 535.803 453.077 534.52C453.096 533.629 452.789 532.761 452.214 532.079C452.001 531.827 451.76 531.6 451.495 531.403C451.416 531.029 451.351 530.675 451.304 530.339C451.247 529.939 451.209 529.538 451.192 529.135C451.155 527.917 451.397 527.081 451.925 526.708C454.407 524.958 463.157 530.567 467.861 533.577C468.795 534.165 469.625 534.707 470.377 535.173L471.039 535.584C474.745 537.871 476.789 539.135 477.106 540.419C477.423 541.702 476.219 543.807 474.026 547.605C472.901 549.551 471.506 551.973 469.891 555.021L469.775 555.24C455.247 582.643 449.489 585.863 447.683 585.975H447.622C431.937 586.95 423.57 586.553 422.24 585.76C422.161 584.897 422.651 583.245 422.982 582.129C423.122 581.583 423.267 581.089 423.351 580.701ZM480.373 541.091C481.083 541.561 481.874 541.898 482.706 542.085C483.133 542.144 483.538 542.312 483.883 542.572C484.228 542.831 484.5 543.174 484.675 543.569C485.907 546.313 483.868 552.832 479.22 561.003C477.274 564.419 475.72 567.392 474.348 570.015C470.4 577.565 467.553 583.016 459.466 591.537C454.263 597.025 444.327 596.204 435.563 595.49C432.012 595.196 428.661 594.921 425.721 595.023C423.747 595.107 422.385 594.557 421.685 593.357C420.751 591.729 421.092 589.157 421.685 587.58C423.029 588.075 425.824 588.49 431.769 588.49C435.615 588.49 440.785 588.317 447.72 587.883H447.785C452.475 587.594 460.437 576.912 471.445 556.15L471.562 555.931C473.163 552.911 474.549 550.508 475.664 548.576C477.909 544.684 479.127 542.411 479.043 540.643C479.525 540.63 479.996 540.788 480.373 541.091Z" fill="black"/>
</svg>
